<svg xmlns="http://www.w3.org/2000/svg" width="100%" height="100%" viewBox="0 0 800 600"><rect fill="#fefefe" x="0" y="0" width="800" height="600" />
<g><rect fill="#333" rx="3" opacity="0.8" visibility="hidden" x="248.39152119700748" y="108.08471760797342" width="114.98634338378906" height="19"></rect><text fill="white" font-size="12px" text-anchor="start" visibility="hidden" x="253.39152119700748" y="119.58471760797342">savant: (0.033, 0.857)</text></g><line x1="50" y1="550" x2="750" y2="550" stroke="black"></line><line x1="50" y1="50" x2="50" y2="550" stroke="black"></line><path d="M740,545 L750,550 L740,555" fill="black"></path><path d="M45,60 L50,50 L55,60" fill="black"></path><text x="400" y="583.3333333333334" text-anchor="middle">Extra hints (including false positives) per line of code</text><text x="-300" y="16.666666666666668" text-anchor="middle" transform="rotate(-90, 25, 25)">Found bugs/All bugs</text><line x1="50" y1="50" x2="50" y2="550" stroke="lightgray" stroke-dasharray="5,5"></line><text x="50" y="565" text-anchor="middle" font-size="10px">0.00</text><line x1="147.72727272727272" y1="50" x2="147.72727272727272" y2="550" stroke="lightgray" stroke-dasharray="5,5"></line><text x="147.72727272727272" y="565" text-anchor="middle" font-size="10px">0.02</text><line x1="245.45454545454544" y1="50" x2="245.45454545454544" y2="550" stroke="lightgray" stroke-dasharray="5,5"></line><text x="245.45454545454544" y="565" text-anchor="middle" font-size="10px">0.04</text><line x1="343.18181818181813" y1="50" x2="343.18181818181813" y2="550" stroke="lightgray" stroke-dasharray="5,5"></line><text x="343.18181818181813" y="565" text-anchor="middle" font-size="10px">0.06</text><line x1="440.9090909090909" y1="50" x2="440.9090909090909" y2="550" stroke="lightgray" stroke-dasharray="5,5"></line><text x="440.9090909090909" y="565" text-anchor="middle" font-size="10px">0.08</text><line x1="538.6363636363636" y1="50" x2="538.6363636363636" y2="550" stroke="lightgray" stroke-dasharray="5,5"></line><text x="538.6363636363636" y="565" text-anchor="middle" font-size="10px">0.10</text><line x1="636.3636363636363" y1="50" x2="636.3636363636363" y2="550" stroke="lightgray" stroke-dasharray="5,5"></line><text x="636.3636363636363" y="565" text-anchor="middle" font-size="10px">0.12</text><line x1="734.0909090909091" y1="50" x2="734.0909090909091" y2="550" stroke="lightgray" stroke-dasharray="5,5"></line><text x="734.0909090909091" y="565" text-anchor="middle" font-size="10px">0.14</text><line x1="50" y1="550" x2="750" y2="550" stroke="lightgray" stroke-dasharray="5,5"></line><text x="40" y="553" text-anchor="end" font-size="10px">0.00</text><line x1="50" y1="500" x2="750" y2="500" stroke="lightgray" stroke-dasharray="5,5"></line><text x="40" y="503" text-anchor="end" font-size="10px">0.10</text><line x1="50" y1="450" x2="750" y2="450" stroke="lightgray" stroke-dasharray="5,5"></line><text x="40" y="453" text-anchor="end" font-size="10px">0.20</text><line x1="50" y1="400" x2="750" y2="400" stroke="lightgray" stroke-dasharray="5,5"></line><text x="40" y="403" text-anchor="end" font-size="10px">0.30</text><line x1="50" y1="350" x2="750" y2="350" stroke="lightgray" stroke-dasharray="5,5"></line><text x="40" y="353" text-anchor="end" font-size="10px">0.40</text><line x1="50" y1="300" x2="750" y2="300" stroke="lightgray" stroke-dasharray="5,5"></line><text x="40" y="303" text-anchor="end" font-size="10px">0.50</text><line x1="50" y1="249.99999999999994" x2="750" y2="249.99999999999994" stroke="lightgray" stroke-dasharray="5,5"></line><text x="40" y="252.99999999999994" text-anchor="end" font-size="10px">0.60</text><line x1="50" y1="199.99999999999994" x2="750" y2="199.99999999999994" stroke="lightgray" stroke-dasharray="5,5"></line><text x="40" y="202.99999999999994" text-anchor="end" font-size="10px">0.70</text><line x1="50" y1="150" x2="750" y2="150" stroke="lightgray" stroke-dasharray="5,5"></line><text x="40" y="153" text-anchor="end" font-size="10px">0.80</text><line x1="50" y1="100" x2="750" y2="100" stroke="lightgray" stroke-dasharray="5,5"></line><text x="40" y="103" text-anchor="end" font-size="10px">0.90</text><line x1="50" y1="50" x2="750" y2="50" stroke="lightgray" stroke-dasharray="5,5"></line><text x="40" y="53" text-anchor="end" font-size="10px">1.00</text><line x1="489.3939393939394" y1="288.0952380952381" x2="504.3939393939394" y2="288.0952380952381" stroke="#b30000" stroke-width="1"></line><circle cx="489.3939393939394" cy="288.0952380952381" r="4" fill="#b30000"></circle><rect x="504.3939393939394" y="276.0952380952381" width="57.359375" height="24" fill="none" stroke="#b30000" rx="3" ry="3"></rect><text x="533.0736268939394" y="288.0952380952381" text-anchor="middle" dominant-baseline="central" font-family="Arial" font-size="12px" fill="#b30000">armur_ai</text><line x1="625.7575757575756" y1="478.57142857142856" x2="640.7575757575756" y2="478.57142857142856" stroke="#b35200" stroke-width="1"></line><circle cx="625.7575757575756" cy="478.57142857142856" r="4" fill="#b35200"></circle><rect x="640.7575757575756" y="466.57142857142856" width="38.6875" height="24" fill="none" stroke="#b35200" rx="3" ry="3"></rect><text x="660.1013257575756" y="478.57142857142856" text-anchor="middle" dominant-baseline="central" font-family="Arial" font-size="12px" fill="#b35200">aegis</text><line x1="390.9090909090909" y1="335.7142857142857" x2="405.9090909090909" y2="335.7142857142857" stroke="#b3a500" stroke-width="1"></line><circle cx="390.9090909090909" cy="335.7142857142857" r="4" fill="#b3a500"></circle><rect x="405.9090909090909" y="323.7142857142857" width="79.712890625" height="24" fill="none" stroke="#b3a500" rx="3" ry="3"></rect><text x="445.7655362215909" y="335.7142857142857" text-anchor="middle" dominant-baseline="central" font-family="Arial" font-size="12px" fill="#b3a500">deepseek_r1</text><line x1="360.60606060606057" y1="335.7142857142857" x2="360.60606060606057" y2="320.7142857142857" stroke="#6eb300" stroke-width="1"></line><circle cx="360.60606060606057" cy="335.7142857142857" r="4" fill="#6eb300"></circle><rect x="313.23887310606057" y="296.7142857142857" width="94.734375" height="24" fill="none" stroke="#6eb300" rx="3" ry="3"></rect><text x="360.60606060606057" y="308.7142857142857" text-anchor="middle" dominant-baseline="central" font-family="Arial" font-size="12px" fill="#6eb300">openai_o3_mini</text><line x1="209.0909090909091" y1="121.42857142857144" x2="224.0909090909091" y2="121.42857142857144" stroke="#1bb300" stroke-width="1"></line><circle cx="209.0909090909091" cy="121.42857142857144" r="4" fill="#1bb300"></circle><rect x="224.0909090909091" y="109.42857142857144" width="46.021484375" height="24" fill="none" stroke="#1bb300" rx="3" ry="3"></rect><text x="247.1016512784091" y="121.42857142857144" text-anchor="middle" dominant-baseline="central" font-family="Arial" font-size="12px" fill="#1bb300">savant</text><line x1="322.7272727272727" y1="335.7142857142857" x2="307.7272727272727" y2="335.7142857142857" stroke="#00b337" stroke-width="1"></line><circle cx="322.7272727272727" cy="335.7142857142857" r="4" fill="#00b337"></circle><rect x="183.6335227272727" y="323.7142857142857" width="124.09375" height="24" fill="none" stroke="#00b337" rx="3" ry="3"></rect><text x="245.6803977272727" y="335.7142857142857" text-anchor="middle" dominant-baseline="central" font-family="Arial" font-size="12px" fill="#00b337">openai_o3_mini_high</text><line x1="186.36363636363635" y1="502.3809523809524" x2="201.36363636363635" y2="502.3809523809524" stroke="#00b389" stroke-width="1"></line><circle cx="186.36363636363635" cy="502.3809523809524" r="4" fill="#00b389"></circle><rect x="201.36363636363635" y="490.3809523809524" width="63.04296875" height="24" fill="none" stroke="#00b389" rx="3" ry="3"></rect><text x="232.88512073863635" y="502.3809523809524" text-anchor="middle" dominant-baseline="central" font-family="Arial" font-size="12px" fill="#00b389">audit_one</text><line x1="95.45454545454545" y1="478.57142857142856" x2="95.45454545454545" y2="463.57142857142856" stroke="#0089b3" stroke-width="1"></line><circle cx="95.45454545454545" cy="478.57142857142856" r="4" fill="#0089b3"></circle><rect x="60.76704545454545" y="439.57142857142856" width="69.375" height="24" fill="none" stroke="#0089b3" rx="3" ry="3"></rect><text x="95.45454545454545" y="451.57142857142856" text-anchor="middle" dominant-baseline="central" font-family="Arial" font-size="12px" fill="#0089b3">quill_shield</text><line x1="300" y1="550" x2="300" y2="535" stroke="#0037b3" stroke-width="1"></line><circle cx="300" cy="550" r="4" fill="#0037b3"></circle><rect x="282.3203125" y="511" width="35.359375" height="24" fill="none" stroke="#0037b3" rx="3" ry="3"></rect><text x="300" y="523" text-anchor="middle" dominant-baseline="central" font-family="Arial" font-size="12px" fill="#0037b3">scau</text><line x1="163.63636363636363" y1="383.33333333333337" x2="178.63636363636363" y2="383.33333333333337" stroke="#1b00b3" stroke-width="1"></line><circle cx="163.63636363636363" cy="383.33333333333337" r="4" fill="#1b00b3"></circle><rect x="178.63636363636363" y="371.33333333333337" width="88.078125" height="24" fill="none" stroke="#1b00b3" rx="3" ry="3"></rect><text x="222.67542613636363" y="383.33333333333337" text-anchor="middle" dominant-baseline="central" font-family="Arial" font-size="12px" fill="#1b00b3">code_genie_ai</text><line x1="368.1818181818182" y1="335.7142857142857" x2="368.1818181818182" y2="350.7142857142857" stroke="#6e00b3" stroke-width="1"></line><circle cx="368.1818181818182" cy="335.7142857142857" r="4" fill="#6e00b3"></circle><rect x="334.4943181818182" y="350.7142857142857" width="67.375" height="24" fill="none" stroke="#6e00b3" rx="3" ry="3"></rect><text x="368.1818181818182" y="362.7142857142857" text-anchor="middle" dominant-baseline="central" font-family="Arial" font-size="12px" fill="#6e00b3">yeschat_ai</text><line x1="231.8181818181818" y1="288.0952380952381" x2="246.8181818181818" y2="288.0952380952381" stroke="#b300a5" stroke-width="1"></line><circle cx="231.8181818181818" cy="288.0952380952381" r="4" fill="#b300a5"></circle><rect x="246.8181818181818" y="276.0952380952381" width="34.34375" height="24" fill="none" stroke="#b300a5" rx="3" ry="3"></rect><text x="263.9900568181818" y="288.0952380952381" text-anchor="middle" dominant-baseline="central" font-family="Arial" font-size="12px" fill="#b300a5">grok</text><line x1="686.3636363636364" y1="430.95238095238096" x2="701.3636363636364" y2="430.95238095238096" stroke="#b30052" stroke-width="1"></line><circle cx="686.3636363636364" cy="430.95238095238096" r="4" fill="#b30052"></circle><rect x="701.3636363636364" y="418.95238095238096" width="42.015625" height="24" fill="none" stroke="#b30052" rx="3" ry="3"></rect><text x="722.3714488636364" y="430.95238095238096" text-anchor="middle" dominant-baseline="central" font-family="Arial" font-size="12px" fill="#b30052">slither</text></svg>

