<svg xmlns="http://www.w3.org/2000/svg" width="100%" height="100%" viewBox="0 0 600 600"><rect fill="#fefefe" x="0" y="0" width="600" height="600" /><g><rect fill="#333" rx="3" opacity="0.8" visibility="hidden" x="168" y="260.5" width="169.4375" height="19"></rect><text fill="white" font-size="12px" text-anchor="start" visibility="hidden" x="173" y="272">grok 3 thinking: (0.037, 0.524)</text></g><line x1="50" y1="550" x2="550" y2="550" stroke="black"></line><line x1="50" y1="50" x2="50" y2="550" stroke="black"></line><path d="M540,545 L550,550 L540,555" fill="black"></path><path d="M45,60 L50,50 L55,60" fill="black"></path><text x="575" y="575" text-anchor="middle">OI</text><text x="25" y="25" text-anchor="middle" transform="rotate(-90, 25, 25)">VDR</text><line x1="50" y1="50" x2="50" y2="550" stroke="lightgray" stroke-dasharray="5,5"></line><text x="50" y="565" text-anchor="middle" font-size="10px">0.00</text><line x1="119.8051948051948" y1="50" x2="119.8051948051948" y2="550" stroke="lightgray" stroke-dasharray="5,5"></line><text x="119.8051948051948" y="565" text-anchor="middle" font-size="10px">0.02</text><line x1="189.6103896103896" y1="50" x2="189.6103896103896" y2="550" stroke="lightgray" stroke-dasharray="5,5"></line><text x="189.6103896103896" y="565" text-anchor="middle" font-size="10px">0.04</text><line x1="259.41558441558436" y1="50" x2="259.41558441558436" y2="550" stroke="lightgray" stroke-dasharray="5,5"></line><text x="259.41558441558436" y="565" text-anchor="middle" font-size="10px">0.06</text><line x1="329.2207792207792" y1="50" x2="329.2207792207792" y2="550" stroke="lightgray" stroke-dasharray="5,5"></line><text x="329.2207792207792" y="565" text-anchor="middle" font-size="10px">0.08</text><line x1="399.025974025974" y1="50" x2="399.025974025974" y2="550" stroke="lightgray" stroke-dasharray="5,5"></line><text x="399.025974025974" y="565" text-anchor="middle" font-size="10px">0.10</text><line x1="468.8311688311688" y1="50" x2="468.8311688311688" y2="550" stroke="lightgray" stroke-dasharray="5,5"></line><text x="468.8311688311688" y="565" text-anchor="middle" font-size="10px">0.12</text><line x1="538.6363636363636" y1="50" x2="538.6363636363636" y2="550" stroke="lightgray" stroke-dasharray="5,5"></line><text x="538.6363636363636" y="565" text-anchor="middle" font-size="10px">0.14</text><line x1="50" y1="550" x2="550" y2="550" stroke="lightgray" stroke-dasharray="5,5"></line><text x="40" y="553" text-anchor="end" font-size="10px">0.00</text><line x1="50" y1="500" x2="550" y2="500" stroke="lightgray" stroke-dasharray="5,5"></line><text x="40" y="503" text-anchor="end" font-size="10px">0.10</text><line x1="50" y1="450" x2="550" y2="450" stroke="lightgray" stroke-dasharray="5,5"></line><text x="40" y="453" text-anchor="end" font-size="10px">0.20</text><line x1="50" y1="400" x2="550" y2="400" stroke="lightgray" stroke-dasharray="5,5"></line><text x="40" y="403" text-anchor="end" font-size="10px">0.30</text><line x1="50" y1="350" x2="550" y2="350" stroke="lightgray" stroke-dasharray="5,5"></line><text x="40" y="353" text-anchor="end" font-size="10px">0.40</text><line x1="50" y1="300" x2="550" y2="300" stroke="lightgray" stroke-dasharray="5,5"></line><text x="40" y="303" text-anchor="end" font-size="10px">0.50</text><line x1="50" y1="249.99999999999994" x2="550" y2="249.99999999999994" stroke="lightgray" stroke-dasharray="5,5"></line><text x="40" y="252.99999999999994" text-anchor="end" font-size="10px">0.60</text><line x1="50" y1="199.99999999999994" x2="550" y2="199.99999999999994" stroke="lightgray" stroke-dasharray="5,5"></line><text x="40" y="202.99999999999994" text-anchor="end" font-size="10px">0.70</text><line x1="50" y1="150" x2="550" y2="150" stroke="lightgray" stroke-dasharray="5,5"></line><text x="40" y="153" text-anchor="end" font-size="10px">0.80</text><line x1="50" y1="100" x2="550" y2="100" stroke="lightgray" stroke-dasharray="5,5"></line><text x="40" y="103" text-anchor="end" font-size="10px">0.90</text><line x1="50" y1="50" x2="550" y2="50" stroke="lightgray" stroke-dasharray="5,5"></line><text x="40" y="53" text-anchor="end" font-size="10px">1.00</text><line x1="363.8528138528138" y1="288.0952380952381" x2="378.8528138528138" y2="288.0952380952381" stroke="#b30000" stroke-width="1"></line><circle cx="363.8528138528138" cy="288.0952380952381" r="4" fill="#b30000"></circle><rect x="378.8528138528138" y="276.0952380952381" width="54.33203125" height="24" fill="none" stroke="#b30000" rx="3" ry="3"></rect><text x="406.0188294778138" y="288.0952380952381" text-anchor="middle" dominant-baseline="central" font-family="Arial" font-size="12px" fill="#b30000">ARMUR</text><line x1="461.2554112554112" y1="478.57142857142856" x2="476.2554112554112" y2="478.57142857142856" stroke="#b35900" stroke-width="1"></line><circle cx="461.2554112554112" cy="478.57142857142856" r="4" fill="#b35900"></circle><rect x="476.2554112554112" y="466.57142857142856" width="40.03125" height="24" fill="none" stroke="#b35900" rx="3" ry="3"></rect><text x="496.2710362554112" y="478.57142857142856" text-anchor="middle" dominant-baseline="central" font-family="Arial" font-size="12px" fill="#b35900">Aegis</text><line x1="293.5064935064935" y1="335.7142857142857" x2="308.5064935064935" y2="335.7142857142857" stroke="#b3b300" stroke-width="1"></line><circle cx="293.5064935064935" cy="335.7142857142857" r="4" fill="#b3b300"></circle><rect x="308.5064935064935" y="323.7142857142857" width="79.712890625" height="24" fill="none" stroke="#b3b300" rx="3" ry="3"></rect><text x="348.3629388189935" y="335.7142857142857" text-anchor="middle" dominant-baseline="central" font-family="Arial" font-size="12px" fill="#b3b300">deepseek_r1</text><line x1="271.86147186147184" y1="335.7142857142857" x2="271.86147186147184" y2="320.7142857142857" stroke="#59b300" stroke-width="1"></line><circle cx="271.86147186147184" cy="335.7142857142857" r="4" fill="#59b300"></circle><rect x="224.49428436147184" y="296.7142857142857" width="94.734375" height="24" fill="none" stroke="#59b300" rx="3" ry="3"></rect><text x="271.86147186147184" y="308.7142857142857" text-anchor="middle" dominant-baseline="central" font-family="Arial" font-size="12px" fill="#59b300">openai_o3_mini</text><line x1="163.63636363636363" y1="121.42857142857144" x2="178.63636363636363" y2="121.42857142857144" stroke="#00b300" stroke-width="1"></line><circle cx="163.63636363636363" cy="121.42857142857144" r="4" fill="#00b300"></circle><rect x="178.63636363636363" y="109.42857142857144" width="72.037109375" height="24" fill="none" stroke="#00b300" rx="3" ry="3"></rect><text x="214.65491832386363" y="121.42857142857144" text-anchor="middle" dominant-baseline="central" font-family="Arial" font-size="12px" fill="#00b300">savant.chat</text><line x1="244.8051948051948" y1="335.7142857142857" x2="229.8051948051948" y2="335.7142857142857" stroke="#00b359" stroke-width="1"></line><circle cx="244.8051948051948" cy="335.7142857142857" r="4" fill="#00b359"></circle><rect x="105.71144480519479" y="323.7142857142857" width="124.09375" height="24" fill="none" stroke="#00b359" rx="3" ry="3"></rect><text x="167.7583198051948" y="335.7142857142857" text-anchor="middle" dominant-baseline="central" font-family="Arial" font-size="12px" fill="#00b359">openai_o3_mini_high</text><line x1="147.4025974025974" y1="502.3809523809524" x2="162.4025974025974" y2="502.3809523809524" stroke="#00b3b3" stroke-width="1"></line><circle cx="147.4025974025974" cy="502.3809523809524" r="4" fill="#00b3b3"></circle><rect x="162.4025974025974" y="490.3809523809524" width="60.359375" height="24" fill="none" stroke="#00b3b3" rx="3" ry="3"></rect><text x="192.5822849025974" y="502.3809523809524" text-anchor="middle" dominant-baseline="central" font-family="Arial" font-size="12px" fill="#00b3b3">AuditOne</text><line x1="82.46753246753246" y1="478.57142857142856" x2="97.46753246753246" y2="463.57142857142856" stroke="#0059b3" stroke-width="1"></line><circle cx="82.46753246753246" cy="478.57142857142856" r="4" fill="#0059b3"></circle><rect x="97.46753246753246" y="439.57142857142856" width="67.375" height="24" fill="none" stroke="#0059b3" rx="3" ry="3"></rect><text x="131.15503246753246" y="451.57142857142856" text-anchor="middle" dominant-baseline="central" font-family="Arial" font-size="12px" fill="#0059b3">QuillShield</text><line x1="228.57142857142856" y1="550" x2="243.57142857142856" y2="535" stroke="#0000b3" stroke-width="1"></line><circle cx="228.57142857142856" cy="550" r="4" fill="#0000b3"></circle><rect x="243.57142857142856" y="511" width="43.34375" height="24" fill="none" stroke="#0000b3" rx="3" ry="3"></rect><text x="265.24330357142856" y="523" text-anchor="middle" dominant-baseline="central" font-family="Arial" font-size="12px" fill="#0000b3">SCAU</text><line x1="131.16883116883116" y1="383.33333333333337" x2="146.16883116883116" y2="383.33333333333337" stroke="#5900b3" stroke-width="1"></line><circle cx="131.16883116883116" cy="383.33333333333337" r="4" fill="#5900b3"></circle><rect x="146.16883116883116" y="371.33333333333337" width="88.0625" height="24" fill="none" stroke="#5900b3" rx="3" ry="3"></rect><text x="190.20008116883116" y="383.33333333333337" text-anchor="middle" dominant-baseline="central" font-family="Arial" font-size="12px" fill="#5900b3">Code Genie AI</text><line x1="179.87012987012986" y1="288.0952380952381" x2="164.87012987012986" y2="288.0952380952381" stroke="#b300b3" stroke-width="1"></line><circle cx="179.87012987012986" cy="288.0952380952381" r="4" fill="#b300b3"></circle><rect x="76.82325487012986" y="276.0952380952381" width="88.046875" height="24" fill="none" stroke="#b300b3" rx="3" ry="3"></rect><text x="120.84669237012986" y="288.0952380952381" text-anchor="middle" dominant-baseline="central" font-family="Arial" font-size="12px" fill="#b300b3">grok 3 thinking</text><line x1="504.5454545454545" y1="430.95238095238096" x2="489.5454545454545" y2="430.95238095238096" stroke="#b30059" stroke-width="1"></line><circle cx="504.5454545454545" cy="430.95238095238096" r="4" fill="#b30059"></circle><rect x="447.5298295454545" y="418.95238095238096" width="42.015625" height="24" fill="none" stroke="#b30059" rx="3" ry="3"></rect><text x="468.5376420454545" y="430.95238095238096" text-anchor="middle" dominant-baseline="central" font-family="Arial" font-size="12px" fill="#b30059">slither</text></svg>